# xmcd
# 
# Track frame offsets:
#     150
#     26780
#     50130
#     72895
#     95322
#     113080
#     142027
#     165315
#     200360
#     220322
#     245895
# 
# Disc length: 3697
# 
# Revision: 1
# Processed by: cddbd v1.5.2PL0 Copyright (c) Steve Scherf et al.
# Submitted via: BonkEnc v1.0.8
# 
DISCID=a30e6f0b
DTITLE=Ralph MacDonald - Just The Two Of Us
DYEAR=1996
DGENRE=Fusion
TTITLE0=Angel
TTITLE1=Just The Two Of Us
TTITLE2=Charade
TTITLE3=You Do Me So
TTITLE4=Where Is The Love
TTITLE5=Atiba
TTITLE6=With You In My Life
TTITLE7=J'ouvert Jam
TTITLE8=File Up The Nihgt
TTITLE9=Take A Holiday
TTITLE10=Mister Magic
EXTD=YEAR: 1996
EXTT0=
EXTT1=
EXTT2=
EXTT3=
EXTT4=
EXTT5=
EXTT6=
EXTT7=
EXTT8=
EXTT9=
EXTT10=
PLAYORDER=
